<svg width="73" height="73" viewBox="0 0 73 73" fill="none" xmlns="http://www.w3.org/2000/svg">
<path d="M7.5 0H22.5C26.5625 0 30 3.4375 30 7.5V22.5C30 26.7188 26.5625 30 22.5 30H7.5C3.28125 30 0 26.7188 0 22.5V7.5C0 3.4375 3.28125 0 7.5 0ZM7.5 40H22.5C26.5625 40 30 43.4375 30 47.5V62.5C30 66.7188 26.5625 70 22.5 70H7.5C3.28125 70 0 66.7188 0 62.5V47.5C0 43.4375 3.28125 40 7.5 40ZM40 7.5C40 3.4375 43.2812 0 47.5 0H62.5C66.5625 0 70 3.4375 70 7.5V22.5C70 26.7188 66.5625 30 62.5 30H47.5C43.2812 30 40 26.7188 40 22.5V7.5ZM55 37.5C57.0312 37.5 58.75 39.2188 58.75 41.25V51.25H68.75C70.7812 51.25 72.5 52.9688 72.5 55C72.5 57.1875 70.7812 58.75 68.75 58.75H58.75V68.75C58.75 70.9375 57.0312 72.5 55 72.5C52.8125 72.5 51.25 70.9375 51.25 68.75V58.75H41.25C39.0625 58.75 37.5 57.1875 37.5 55C37.5 52.9688 39.0625 51.25 41.25 51.25H51.25V41.25C51.25 39.2188 52.8125 37.5 55 37.5Z" fill="#333333"/>
</svg>
