<svg width="66" height="41" viewBox="0 0 66 41" fill="none" xmlns="http://www.w3.org/2000/svg">
<path d="M50.5 7.5C50.5 4.84375 51.9062 2.5 54.25 1.09375C56.4375 -0.3125 59.4062 -0.3125 61.75 1.09375C63.9375 2.5 65.5 4.84375 65.5 7.5C65.5 10.3125 63.9375 12.6562 61.75 14.0625C59.4062 15.4688 56.4375 15.4688 54.25 14.0625C51.9062 12.6562 50.5 10.3125 50.5 7.5ZM25.5 7.5C25.5 4.84375 26.9062 2.5 29.25 1.09375C31.4375 -0.3125 34.4062 -0.3125 36.75 1.09375C38.9375 2.5 40.5 4.84375 40.5 7.5C40.5 10.3125 38.9375 12.6562 36.75 14.0625C34.4062 15.4688 31.4375 15.4688 29.25 14.0625C26.9062 12.6562 25.5 10.3125 25.5 7.5ZM8 15C5.1875 15 2.84375 13.5938 1.4375 11.25C0.03125 9.0625 0.03125 6.09375 1.4375 3.75C2.84375 1.5625 5.1875 0 8 0C10.6562 0 13 1.5625 14.4062 3.75C15.8125 6.09375 15.8125 9.0625 14.4062 11.25C13 13.5938 10.6562 15 8 15ZM50.5 32.5C50.5 29.8438 51.9062 27.5 54.25 26.0938C56.4375 24.6875 59.4062 24.6875 61.75 26.0938C63.9375 27.5 65.5 29.8438 65.5 32.5C65.5 35.3125 63.9375 37.6562 61.75 39.0625C59.4062 40.4688 56.4375 40.4688 54.25 39.0625C51.9062 37.6562 50.5 35.3125 50.5 32.5ZM33 40C30.1875 40 27.8438 38.5938 26.4375 36.25C25.0312 34.0625 25.0312 31.0938 26.4375 28.75C27.8438 26.5625 30.1875 25 33 25C35.6562 25 38 26.5625 39.4062 28.75C40.8125 31.0938 40.8125 34.0625 39.4062 36.25C38 38.5938 35.6562 40 33 40ZM0.5 32.5C0.5 29.8438 1.90625 27.5 4.25 26.0938C6.4375 24.6875 9.40625 24.6875 11.75 26.0938C13.9375 27.5 15.5 29.8438 15.5 32.5C15.5 35.3125 13.9375 37.6562 11.75 39.0625C9.40625 40.4688 6.4375 40.4688 4.25 39.0625C1.90625 37.6562 0.5 35.3125 0.5 32.5Z" fill="#333333"/>
</svg>
