<svg width="80" height="60" viewBox="0 0 80 60" fill="none" xmlns="http://www.w3.org/2000/svg">
<path d="M15 40C12.1875 40 10 42.3438 10 45C10 47.8125 12.1875 50 15 50C17.6562 50 20 47.8125 20 45C20 42.3438 17.6562 40 15 40ZM29.0625 40H75C77.6562 40 80 42.3438 80 45C80 47.8125 77.6562 50 75 50H29.0625C27.0312 55.9375 21.4062 60 15 60C6.71875 60 0 53.2812 0 45C0 36.7188 6.71875 30 15 30C21.4062 30 27.0312 34.2188 29.0625 40ZM60 15C60 17.8125 62.1875 20 65 20C67.6562 20 70 17.8125 70 15C70 12.3438 67.6562 10 65 10C62.1875 10 60 12.3438 60 15ZM50.7812 10C52.8125 4.21875 58.4375 0 65 0C73.2812 0 80 6.71875 80 15C80 23.2812 73.2812 30 65 30C58.4375 30 52.8125 25.9375 50.7812 20H5C2.1875 20 0 17.8125 0 15C0 12.3438 2.1875 10 5 10H50.7812Z" fill="#333333"/>
</svg>
