<svg width="60" height="80" viewBox="0 0 60 80" fill="none" xmlns="http://www.w3.org/2000/svg">
<path d="M35 5V22.5H52.5C55.1562 22.5 57.5 24.8438 57.5 27.5C57.5 30.3125 55.1562 32.5 52.5 32.5H35V50C35 52.8125 32.6562 55 30 55C27.1875 55 25 52.8125 25 50V32.5H7.5C4.6875 32.5 2.5 30.3125 2.5 27.5C2.5 24.8438 4.6875 22.5 7.5 22.5H25V5C25 2.34375 27.1875 0 30 0C32.6562 0 35 2.34375 35 5ZM0 75C0 72.3438 2.1875 70 5 70H55C57.6562 70 60 72.3438 60 75C60 77.8125 57.6562 80 55 80H5C2.1875 80 0 77.8125 0 75Z" fill="#333333"/>
</svg>
