<svg width="1440" height="2072" viewBox="0 0 1440 2072" fill="none" xmlns="http://www.w3.org/2000/svg">
<path opacity="0.05" d="M1041.52 1156L1116.02 1162.63C1115.63 1168.48 1111.73 1172.38 1101.98 1173.94V1453.6C1101.98 1493.78 1091.83 1515.23 1022.02 1521.47C1020.07 1501.58 1016.95 1488.32 1007.59 1478.96C998.224 1469.59 987.693 1463.35 960 1458.28V1453.6C960 1453.6 1020.07 1456.72 1032.16 1456.72C1039.18 1456.72 1041.52 1454.38 1041.52 1449.31V1156Z" fill="black"/>
<path opacity="0.05" d="M987.892 345.005C986.852 341.884 985.162 337.334 982.822 331.353C980.741 325.373 978.271 319.262 975.411 313.021C972.811 306.52 970.34 301.06 968 296.639C974.501 294.299 980.611 289.488 986.332 282.208C992.053 274.927 999.333 264.656 1008.17 251.394C1011.81 246.194 1016.76 238.263 1023 227.602C1029.24 216.681 1036.26 203.679 1044.06 188.597C1051.86 173.256 1059.79 156.614 1067.85 138.672C1076.17 120.73 1084.23 102.008 1092.03 82.5059C1099.83 63.0038 1106.73 43.5021 1112.71 24L1165.36 40.3817C1152.36 75.4855 1137.93 109.549 1122.07 142.573C1106.47 175.336 1090.21 206.279 1073.31 235.403C1056.67 264.526 1040.16 291.048 1023.78 314.971V316.142C1023.78 316.142 1021.96 317.182 1018.32 319.262C1014.68 321.342 1010.51 324.072 1005.83 327.453C1001.15 330.573 996.993 333.693 993.353 336.814C989.712 339.934 987.892 342.664 987.892 345.005ZM987.892 345.005L987.112 308.341L1019.88 291.569L1282.76 281.818C1282.76 285.978 1282.89 290.919 1283.15 296.639C1283.41 302.1 1283.8 307.561 1284.32 313.021C1285.1 318.222 1285.75 322.512 1286.27 325.892C1245.71 327.973 1210.48 329.793 1180.57 331.353C1150.93 332.653 1125.71 333.824 1104.9 334.864C1084.36 335.904 1067.2 336.684 1053.42 337.204C1039.9 337.984 1028.98 338.764 1020.66 339.544C1012.33 340.324 1005.7 341.104 1000.76 341.884C995.823 342.664 991.533 343.704 987.892 345.005Z" fill="black"/>
<path opacity="0.05" d="M835 649.996C883.755 642.585 995.697 621.133 1099.45 595L1100.23 599.29C1056.15 628.934 990.237 664.038 881.025 707.722C878.685 712.793 874.784 716.693 869.714 718.253L835 649.996Z" fill="black"/>
<path opacity="0.05" d="M965.461 1651C994.714 1812.09 1103.54 1876.05 1229.52 1909.99L1227.96 1914.67C1199.1 1917.79 1177.25 1934.95 1165.94 1963.03C1052.44 1913.89 980.672 1834.71 960 1653.73L965.461 1651Z" fill="black"/>
<path opacity="0.05" d="M273.432 163L348.32 170.021C347.54 175.481 344.419 179.382 333.888 180.942V311.606C333.108 407.946 299.565 491.806 166.95 526.519L165 523.399C252.76 471.913 273.432 396.635 273.432 311.216V163Z" fill="black"/>
<path opacity="0.05" d="M561 607L636.278 614.021C635.498 619.481 633.158 623.772 621.847 625.332V951.407C621.847 957.258 595.714 972.08 572.311 972.08H561V607Z" fill="black"/>
<path opacity="0.05" d="M62 1023.49H332.689L368.963 972C368.963 972 409.528 1007.49 432.93 1029.73C431.76 1034.02 427.08 1035.97 420.449 1035.97H65.5104L62 1023.49Z" fill="black"/>
<path opacity="0.05" d="M201.73 1418C436.146 1456.61 390.511 1619.26 313.672 1570.51C294.17 1513.95 250.096 1456.61 199 1420.73L201.73 1418Z" fill="black"/>
</svg>
