<svg width="1440" height="2072" viewBox="0 0 1440 2072" fill="none" xmlns="http://www.w3.org/2000/svg">
<g clip-path="url(#clip0_295_3996)">
<path opacity="0.05" d="M1118.52 1591L1193.02 1597.63C1192.63 1603.48 1188.73 1607.38 1178.98 1608.94V1888.6C1178.98 1928.78 1168.83 1950.23 1099.02 1956.47C1097.07 1936.58 1093.95 1923.32 1084.59 1913.96C1075.22 1904.59 1064.69 1898.35 1037 1893.28V1888.6C1037 1888.6 1097.07 1891.72 1109.16 1891.72C1116.18 1891.72 1118.52 1889.38 1118.52 1884.31V1591Z" fill="black"/>
<g opacity="0.07" filter="url(#filter0_f_295_3996)">
<path d="M948.438 459C947.003 454.694 944.672 448.414 941.444 440.161C938.574 431.907 935.167 423.474 931.222 414.862C927.635 405.89 924.228 398.355 921 392.254C929.967 389.024 938.395 382.385 946.286 372.338C954.176 362.29 964.219 348.115 976.413 329.814C981.434 322.637 988.249 311.692 996.857 296.979C1005.46 281.907 1015.15 263.965 1025.91 243.152C1036.67 221.979 1047.61 199.013 1058.73 174.253C1070.2 149.492 1081.32 123.654 1092.08 96.7407C1102.84 69.8269 1112.35 42.9137 1120.59 16L1193.22 38.6074C1175.29 87.0522 1155.38 134.062 1133.51 179.636C1111.99 224.851 1089.57 267.553 1066.26 307.745C1043.3 347.936 1020.53 384.538 997.933 417.553V419.168C997.933 419.168 995.422 420.603 990.401 423.474C985.379 426.345 979.641 430.113 973.185 434.778C966.729 439.084 960.991 443.39 955.969 447.696C950.948 452.002 948.438 455.77 948.438 459ZM948.438 459L947.362 408.402L992.553 385.257L1355.16 371.799C1355.16 377.541 1355.34 384.359 1355.7 392.254C1356.05 399.79 1356.59 407.326 1357.31 414.862C1358.39 422.039 1359.28 427.959 1360 432.624C1304.05 435.495 1255.45 438.008 1214.2 440.161C1173.32 441.955 1138.53 443.57 1109.83 445.005C1081.5 446.441 1057.83 447.517 1038.82 448.234C1020.17 449.311 1005.11 450.388 993.629 451.464C982.152 452.541 973.006 453.617 966.191 454.694C959.377 455.77 953.459 457.206 948.438 459Z" fill="black"/>
</g>
<path opacity="0.05" d="M131 182.425C246.625 164.85 512.1 113.975 758.15 52L760 62.1749C655.475 132.475 499.15 215.725 240.15 319.325C234.6 331.35 225.35 340.6 213.325 344.3L131 182.425Z" fill="black"/>
<g opacity="0.1" filter="url(#filter1_f_295_3996)">
<path d="M138.78 1591C180.459 1820.22 335.504 1911.23 515 1959.52L512.777 1966.18C471.654 1970.62 440.534 1995.04 424.418 2035C262.705 1965.07 160.453 1852.4 131 1594.88L138.78 1591Z" fill="black"/>
</g>
<g opacity="0.1" filter="url(#filter2_f_295_3996)">
<path d="M1287.69 584L1417.32 596.152C1415.97 605.605 1410.57 612.356 1392.34 615.057V841.231C1390.99 1007.99 1332.93 1153.15 1103.38 1213.24L1100 1207.84C1251.91 1118.72 1287.69 988.414 1287.69 840.556V584Z" fill="black"/>
</g>
<path opacity="0.05" d="M411 344L486.278 351.021C485.498 356.481 483.158 360.772 471.847 362.332V688.407C471.847 694.258 445.714 709.08 422.311 709.08H411V344Z" fill="black"/>
<g opacity="0.1" filter="url(#filter3_f_295_3996)">
<path d="M-297 1117.62H284.617L362.557 1007C362.557 1007 449.716 1083.26 500 1131.03C497.486 1140.25 487.429 1144.44 473.182 1144.44H-289.457L-297 1117.62Z" fill="black"/>
</g>
<path opacity="0.05" d="M325.73 1352C560.146 1390.61 514.511 1553.26 437.672 1504.51C418.17 1447.95 374.096 1390.61 323 1354.73L325.73 1352Z" fill="black"/>
</g>
<defs>
<filter id="filter0_f_295_3996" x="891" y="-14" width="499" height="503" filterUnits="userSpaceOnUse" color-interpolation-filters="sRGB">
<feFlood flood-opacity="0" result="BackgroundImageFix"/>
<feBlend mode="normal" in="SourceGraphic" in2="BackgroundImageFix" result="shape"/>
<feGaussianBlur stdDeviation="15" result="effect1_foregroundBlur_295_3996"/>
</filter>
<filter id="filter1_f_295_3996" x="111" y="1571" width="424" height="484" filterUnits="userSpaceOnUse" color-interpolation-filters="sRGB">
<feFlood flood-opacity="0" result="BackgroundImageFix"/>
<feBlend mode="normal" in="SourceGraphic" in2="BackgroundImageFix" result="shape"/>
<feGaussianBlur stdDeviation="10" result="effect1_foregroundBlur_295_3996"/>
</filter>
<filter id="filter2_f_295_3996" x="1060" y="544" width="397.32" height="709.239" filterUnits="userSpaceOnUse" color-interpolation-filters="sRGB">
<feFlood flood-opacity="0" result="BackgroundImageFix"/>
<feBlend mode="normal" in="SourceGraphic" in2="BackgroundImageFix" result="shape"/>
<feGaussianBlur stdDeviation="20" result="effect1_foregroundBlur_295_3996"/>
</filter>
<filter id="filter3_f_295_3996" x="-327" y="977" width="857" height="197.443" filterUnits="userSpaceOnUse" color-interpolation-filters="sRGB">
<feFlood flood-opacity="0" result="BackgroundImageFix"/>
<feBlend mode="normal" in="SourceGraphic" in2="BackgroundImageFix" result="shape"/>
<feGaussianBlur stdDeviation="15" result="effect1_foregroundBlur_295_3996"/>
</filter>
<clipPath id="clip0_295_3996">
<rect width="1440" height="2072" fill="white"/>
</clipPath>
</defs>
</svg>
